<?xml version="1.0" encoding="UTF-8" standalone="no"?>
<svg
   viewBox="1.95 0.97 128 128"
   width="128"
   height="128"
   version="1.1"
   id="svg24"
   sodipodi:docname="calckey.svg"
   inkscape:version="1.2.2 (b0a8486541, 2022-12-01)"
   xmlns:inkscape="http://www.inkscape.org/namespaces/inkscape"
   xmlns:sodipodi="http://sodipodi.sourceforge.net/DTD/sodipodi-0.dtd"
   xmlns:xlink="http://www.w3.org/1999/xlink"
   xmlns="http://www.w3.org/2000/svg"
   xmlns:svg="http://www.w3.org/2000/svg">
  <sodipodi:namedview
     id="namedview26"
     pagecolor="#ffffff"
     bordercolor="#666666"
     borderopacity="1.0"
     inkscape:showpageshadow="2"
     inkscape:pageopacity="0.0"
     inkscape:pagecheckerboard="true"
     inkscape:deskcolor="#d1d1d1"
     showgrid="false"
     inkscape:zoom="11.346854"
     inkscape:cx="36.9706"
     inkscape:cy="70.063473"
     inkscape:window-width="2560"
     inkscape:window-height="1410"
     inkscape:window-x="0"
     inkscape:window-y="0"
     inkscape:window-maximized="1"
     inkscape:current-layer="svg24" />
  <linearGradient
     id="a"
     gradientTransform="rotate(90)">
    <stop
       offset="5%"
       stop-color="#9ccfd8"
       style="--darkreader-inline-stopcolor:#265760;stop-color:#ffffff"
       id="stop2" />
    <stop
       offset="95%"
       stop-color="#31748f"
       style="--darkreader-inline-stopcolor:#275d72;stop-color:#000000"
       id="stop4" />
  </linearGradient>
  <defs
     id="defs12">
    <linearGradient
       id="linearGradient985"
       gradientTransform="rotate(90)">
      <stop
         offset="0.09619679"
         stop-color="#9ccfd8"
         style="stop-color:#000000;stop-opacity:0.19858399;"
         id="stop981" />
      <stop
         offset="0.94999999"
         stop-color="#31748f"
         style="stop-color:#000000;stop-opacity:1;"
         id="stop983" />
    </linearGradient>
    <linearGradient
       xlink:href="#linearGradient985"
       id="f"
       gradientTransform="scale(1.27567 .7839)"
       x1="-43.77"
       y1="98.469"
       x2="-27.05"
       y2="137.466"
       gradientUnits="userSpaceOnUse" />
    <linearGradient
       xlink:href="#a"
       id="d"
       x1="0"
       y1="0"
       x2="1"
       y2="0"
       gradientUnits="userSpaceOnUse" />
    <linearGradient
       xlink:href="#a"
       id="e"
       gradientTransform="scale(1.27567 .7839)"
       x1="-43.77"
       y1="98.468"
       x2="-8.156"
       y2="98.468"
       gradientUnits="userSpaceOnUse" />
    <linearGradient
       xlink:href="#a"
       id="c"
       gradientTransform="scale(1.27567 .7839)"
       x1="1.571"
       y1="1.27"
       x2="133.179"
       y2="1.27"
       gradientUnits="userSpaceOnUse" />
    <linearGradient
       xlink:href="#a"
       id="b"
       gradientTransform="scale(1.27567 .7839)"
       x1="1.571"
       y1="1.27"
       x2="133.179"
       y2="1.27"
       gradientUnits="userSpaceOnUse" />
    <filter
       style="color-interpolation-filters:sRGB;"
       inkscape:label="Invert"
       id="filter4056"
       x="0"
       y="0"
       width="1"
       height="1">
      <feColorMatrix
         type="hueRotate"
         values="180"
         result="color1"
         id="feColorMatrix4052" />
      <feColorMatrix
         values="-1 0 0 0 1 0 -1 0 0 1 0 0 -1 0 1 0.21 0.72 0.07 1 0 "
         result="color2"
         id="feColorMatrix4054" />
    </filter>
  </defs>
  <g
     style="fill:#000000;filter:url(#filter4056);fill-opacity:1"
     transform="translate(.934 25.196) scale(.75646)"
     id="g22">
    <g
       style="fill:#000000;fill-opacity:1"
       fill="url(#a)"
       word-spacing="0"
       letter-spacing="0"
       font-family="'OTADESIGN Rounded'"
       font-weight="400"
       id="g20">
      <g
         transform="translate(-55.341 -52.023) scale(.26953)"
         style="fill:#000000;fill-opacity:1"
         id="g14" />
      <g
         style="fill:#000000;fill-opacity:1"
         id="g18">
        <path
           style="fill:#000000;fill-opacity:1"
           d="M-41.832 77.19c-3.868 0-7.177 1.358-9.93 4.074-2.716 2.752-4.074 6.063-4.074 9.931 0 3.869 1.358 7.04 4.074 9.793 2.753 2.716 6.064 4.073 9.932 4.073 3.831 0 7.122-1.357 9.875-4.073.855-.855 1.283-1.896 1.283-3.123 0-1.228-.428-2.271-1.283-3.127-.856-.855-1.897-1.281-3.123-1.281-1.229 0-2.27.426-3.125 1.281-1.004 1.042-2.213 1.563-3.627 1.563-3.035-.31-5.208-2.263-5.246-5.106.038-2.842 2.21-4.935 5.244-5.246 1.414 0 2.623.52 3.627 1.563.855.855 1.898 1.283 3.127 1.283 1.226 0 2.267-.428 3.123-1.283.855-.856 1.283-1.897 1.283-3.125 0-1.227-.428-2.268-1.283-3.123-2.753-2.716-6.046-4.075-9.877-4.075zm20.902 6.91c-2.88 0-5.353 1.02-7.422 3.06-.642.643-.964 1.426-.964 2.348 0 .923.322 1.706.964 2.35.644.642 1.427.962 2.348.962.924 0 1.707-.32 2.35-.963.754-.783 1.662-1.173 2.724-1.173 1.09 0 2.026.376 2.809 1.13a3.909 3.909 0 0 1 1.135 2.811c0 1.062-.393 1.97-1.176 2.725-.392.419-.868.7-1.426.84-.141.027-.252.012-.336-.044-.056-.084-.028-.168.084-.251l.84-.881c.643-.643.965-1.411.965-2.305 0-.922-.28-1.663-.838-2.223-.559-.559-1.343-.84-2.35-.84-.698 0-1.397.35-2.095 1.05l-4.866 4.822c-.643.643-.964 1.426-.964 2.347 0 .923.321 1.705.964 2.348 1.957 1.93 4.375 2.894 7.254 2.894 2.908 0 5.396-1.034 7.465-3.103 2.041-2.041 3.06-4.5 3.06-7.379 0-2.907-1.019-5.396-3.06-7.465-2.069-2.04-4.557-3.06-7.465-3.06z"
           transform="translate(208.34 -284.25) scale(3.6954)"
           clip-rule="evenodd"
           fill-rule="evenodd"
           id="path16" />
      </g>
    </g>
  </g>
</svg>
